<?xml version="1.0" standalone="no"?>
<!DOCTYPE svg PUBLIC "-//W3C//DTD SVG 20010904//EN"
 "http://www.w3.org/TR/2001/REC-SVG-20010904/DTD/svg10.dtd">
<svg version="1.0" xmlns="http://www.w3.org/2000/svg"
 width="640.000000pt" height="640.000000pt" viewBox="0 0 640.000000 640.000000"
 preserveAspectRatio="xMidYMid meet">
<metadata>
Created by potrace 1.14, written by Peter Selinger 2001-2017
</metadata>
<g transform="translate(0.000000,640.000000) scale(0.100000,-0.100000)"
fill="#000000" stroke="none">
<path d="M1608 5906 c-44 -13 -113 -49 -148 -78 -53 -45 -116 -159 -135 -247
-3 -12 -7 -31 -10 -43 -20 -91 -26 -334 -11 -473 5 -44 10 -89 11 -100 1 -11
4 -29 8 -40 24 -78 18 -116 -29 -190 -13 -22 -27 -48 -31 -57 -3 -10 -9 -18
-14 -18 -5 0 -8 -3 -7 -7 0 -5 -17 -46 -39 -93 -82 -174 -131 -345 -157 -549
-3 -24 -9 -48 -13 -52 -4 -4 -65 -36 -134 -72 -69 -36 -149 -79 -178 -96 -28
-17 -54 -31 -57 -31 -2 0 -45 -27 -96 -60 -50 -33 -92 -60 -94 -60 -2 0 -12
-7 -21 -16 -10 -8 -47 -37 -83 -63 -149 -109 -277 -250 -329 -361 -34 -73 -36
-83 -36 -170 0 -89 25 -148 89 -215 66 -68 198 -135 326 -165 25 -6 54 -13 65
-16 54 -14 145 -26 295 -39 58 -5 403 -5 495 0 114 6 238 15 265 20 14 2 58 7
99 10 41 4 82 8 90 10 9 2 45 6 81 9 36 4 76 9 90 11 14 3 39 7 55 9 41 6 115
17 145 21 22 4 284 49 350 60 14 3 36 7 50 10 14 3 59 12 100 20 41 8 86 17
100 21 14 3 36 7 50 10 14 3 66 14 115 25 50 12 99 23 110 25 17 3 342 85 398
99 9 3 25 7 35 10 76 20 175 48 277 79 66 20 125 38 130 39 61 17 263 82 440
144 102 35 115 39 127 42 4 1 32 13 63 26 30 14 57 25 60 24 7 0 112 38 140
51 11 5 76 31 145 59 69 27 172 70 230 96 58 25 123 54 145 63 268 114 700
361 875 500 66 53 68 54 157 141 231 227 266 455 96 611 -81 74 -252 149 -398
174 -108 19 -154 24 -265 32 -116 8 -369 8 -467 0 -79 -7 -86 -2 -73 59 4 17
6 104 5 195 -2 130 -7 184 -23 253 -62 251 -191 364 -416 365 -72 0 -226 -30
-301 -60 -42 -16 -284 -117 -320 -133 -16 -7 -58 -24 -92 -38 l-61 -25 -94 24
c-51 13 -104 26 -118 28 -14 3 -52 9 -85 15 -176 30 -364 39 -565 27 -47 -3
-94 -8 -106 -10 -12 -2 -45 -7 -75 -11 -30 -4 -57 -9 -60 -10 -3 -2 -28 -7
-55 -11 -27 -3 -53 -9 -59 -12 -5 -3 -16 -7 -25 -8 -8 0 -42 -8 -74 -17 -60
-16 -60 -16 -125 12 -316 138 -482 199 -588 219 -76 13 -192 13 -245 -2z
m1802 -410 c459 -49 869 -243 1180 -556 58 -58 112 -114 120 -125 115 -154
149 -208 211 -334 69 -142 127 -333 143 -469 2 -18 6 -35 9 -38 11 -11 257
119 257 135 -1 13 -7 43 -29 136 -33 136 -150 412 -216 509 -13 19 -21 37 -17
39 44 21 593 14 706 -9 12 -2 35 -7 51 -9 67 -12 179 -47 223 -69 95 -48 114
-94 72 -176 -19 -37 -141 -169 -195 -210 -37 -28 -171 -125 -191 -137 -175
-111 -371 -221 -534 -300 -103 -50 -261 -123 -267 -123 -4 0 -35 -14 -70 -30
-35 -17 -81 -37 -101 -44 -75 -28 -138 -53 -172 -68 -29 -14 -64 -26 -90 -33
-3 -1 -18 -7 -35 -14 -98 -39 -341 -124 -505 -176 -63 -20 -126 -40 -140 -45
-33 -11 -266 -80 -288 -85 -9 -2 -57 -16 -107 -30 -49 -14 -97 -28 -105 -29
-8 -2 -35 -9 -60 -16 -25 -7 -46 -12 -47 -12 -2 1 -33 -8 -70 -19 -38 -11 -81
-22 -98 -25 -16 -3 -51 -11 -77 -19 -27 -8 -48 -12 -48 -9 0 3 -6 2 -12 -3 -7
-4 -20 -8 -28 -10 -33 -5 -98 -19 -102 -23 -2 -1 -16 -4 -33 -6 -16 -3 -66
-13 -110 -24 -44 -10 -93 -21 -110 -23 -16 -3 -52 -10 -80 -16 -61 -12 -211
-40 -245 -45 -14 -3 -59 -10 -100 -16 -41 -6 -86 -13 -99 -15 -13 -3 -45 -7
-70 -11 -25 -3 -57 -8 -71 -10 -14 -3 -45 -7 -70 -9 -25 -3 -58 -7 -75 -10
-26 -4 -70 -8 -205 -20 -209 -20 -615 -26 -770 -12 -231 20 -399 70 -449 133
-59 75 39 218 264 384 136 100 361 240 385 240 5 0 15 6 22 13 7 7 25 18 40
24 33 15 39 8 44 -55 3 -39 14 -92 47 -229 2 -7 6 -16 10 -19 4 -4 7 -14 7
-22 0 -21 91 -212 102 -212 4 0 8 -6 8 -12 1 -17 85 -123 96 -122 5 1 43 5 84
8 41 4 104 9 140 13 36 3 73 6 83 5 26 -1 21 9 -34 63 -54 53 -120 142 -160
213 -19 34 -21 45 -10 51 7 5 84 32 171 61 188 61 215 80 207 143 -6 41 -31
70 -69 80 -9 3 -97 -22 -195 -54 -98 -32 -181 -59 -185 -59 -4 0 -10 21 -14
48 -3 26 -9 56 -11 67 -3 11 -6 80 -8 154 l-3 133 42 -6 c60 -9 87 -14 126
-21 19 -4 44 -8 55 -9 11 -2 34 -6 50 -9 139 -30 184 -21 211 41 10 25 9 35
-10 68 -21 39 -22 39 -131 61 -61 12 -130 24 -155 28 -62 8 -100 14 -133 21
-28 6 -29 8 -22 50 9 64 60 214 108 319 42 91 135 252 163 280 9 8 12 15 7 15
-4 0 -3 4 2 8 6 4 23 25 39 47 43 58 231 243 301 295 33 25 62 47 65 50 20 22
223 141 236 139 4 0 10 3 13 8 6 8 83 46 89 44 1 -1 16 5 32 14 29 15 154 62
188 71 9 2 50 13 91 24 93 25 224 48 321 56 41 4 76 7 77 8 6 5 275 -2 333 -8z"/>
<path d="M1923 4552 c-12 -2 -33 -14 -47 -27 -51 -47 -23 -136 47 -149 18 -3
43 -8 57 -11 13 -3 42 -7 65 -10 22 -3 67 -10 100 -15 33 -5 81 -12 107 -15
26 -2 62 -7 80 -9 29 -4 94 -11 208 -22 38 -3 168 -14 240 -19 58 -4 54 -2 77
-22 12 -10 49 -40 83 -68 33 -27 73 -60 88 -72 l26 -22 -36 -33 c-21 -18 -54
-48 -75 -66 -249 -215 -246 -211 -219 -274 10 -23 70 -42 111 -35 32 5 50 17
125 87 21 19 59 53 86 75 26 22 54 47 63 55 9 8 30 27 46 42 l30 27 50 -45
c28 -25 83 -76 124 -112 41 -37 84 -77 96 -88 45 -44 102 -58 145 -34 30 15
43 36 48 71 2 22 -13 41 -99 120 -56 52 -114 106 -129 120 -16 14 -44 40 -64
57 -41 35 -39 48 8 80 18 12 50 38 72 58 47 43 82 68 101 70 7 1 66 5 131 8
64 4 135 8 157 11 22 2 69 7 105 11 136 14 190 21 300 40 47 8 100 17 119 20
19 2 37 6 41 9 4 2 22 7 41 10 87 14 109 130 31 168 -17 9 -40 11 -62 7 -75
-15 -287 -52 -320 -56 -19 -2 -55 -7 -80 -10 -347 -44 -946 -52 -1335 -18 -95
8 -170 14 -220 18 -27 3 -63 7 -80 9 -16 3 -55 8 -85 12 -53 6 -75 8 -150 19
-61 8 -173 27 -179 29 -3 2 -16 1 -28 -1z"/>
<path d="M5225 3474 c-55 -25 -113 -51 -130 -59 -103 -47 -425 -175 -620 -247
-97 -35 -581 -198 -604 -203 -9 -2 -52 -15 -96 -28 -85 -27 -193 -59 -210 -63
-5 -1 -53 -14 -105 -28 -52 -15 -104 -29 -115 -31 -47 -11 -62 -14 -93 -24
-18 -5 -35 -10 -37 -10 -3 -1 -6 -1 -7 -2 -2 0 -10 -2 -18 -4 -40 -9 -74 -16
-175 -40 -308 -72 -789 -165 -940 -181 -27 -3 -54 -9 -60 -15 -5 -6 -5 -9 3
-9 19 0 20 0 64 -16 38 -13 93 -28 153 -40 19 -4 39 -8 87 -19 23 -5 55 -10
126 -20 20 -3 44 -7 52 -10 8 -2 44 -7 80 -10 36 -3 83 -8 105 -11 193 -25
666 -30 915 -9 30 2 80 6 110 9 117 9 316 41 455 72 17 4 37 8 45 9 8 1 22 5
30 8 13 5 86 26 115 33 24 5 164 57 205 76 71 32 174 82 185 90 6 5 46 31 90
60 97 63 253 218 318 314 26 39 47 75 47 81 0 6 4 13 8 15 28 12 145 359 120
358 -1 0 -48 -21 -103 -46z"/>
<path d="M3520 2069 c-143 -27 -284 -118 -313 -202 -34 -100 48 -166 208 -167
63 -1 152 17 210 41 17 6 35 13 42 15 22 4 121 83 143 114 54 75 34 139 -60
188 -30 16 -169 22 -230 11z"/>
<path d="M1465 1903 c-25 -5 -66 -39 -89 -74 -35 -55 -39 -109 -38 -589 0
-443 3 -481 44 -548 41 -66 144 -90 223 -52 36 17 49 32 72 78 30 62 27 17 36
552 2 159 5 179 26 222 37 78 106 111 194 94 54 -10 100 -60 112 -121 15 -78
17 -124 20 -393 1 -186 7 -300 14 -325 16 -49 64 -103 104 -116 63 -21 169 2
199 44 5 5 17 35 29 65 20 51 22 76 23 360 3 324 10 384 55 438 44 52 150 68
209 32 79 -48 91 -114 92 -488 1 -245 4 -290 19 -338 33 -99 112 -141 216
-115 75 19 119 83 130 187 7 67 7 646 0 684 -2 14 -6 43 -9 65 -8 74 -53 170
-103 222 -86 89 -149 115 -292 118 -157 4 -242 -30 -358 -144 l-25 -23 -32 33
c-44 47 -104 86 -167 111 -62 24 -210 33 -274 17 -22 -5 -45 -11 -50 -12 -6
-1 -28 -13 -48 -25 -21 -12 -40 -22 -43 -22 -3 0 -16 -12 -30 -27 -18 -20 -27
-24 -31 -15 -11 28 -58 74 -94 92 -35 19 -84 23 -134 13z"/>
<path d="M4021 1889 c-47 -21 -88 -69 -101 -120 -24 -87 4 -142 139 -280 58
-59 123 -125 143 -146 l38 -39 -31 -34 c-30 -33 -143 -157 -224 -245 -55 -59
-101 -117 -114 -142 -27 -52 -17 -147 19 -186 11 -11 20 -24 20 -27 0 -13 86
-48 119 -48 43 -1 94 20 123 50 13 13 59 66 103 118 44 52 82 97 85 100 3 3
15 18 27 33 46 60 97 111 100 100 2 -5 17 -25 33 -43 17 -19 65 -76 107 -128
108 -131 187 -209 227 -222 63 -20 139 0 187 49 38 39 50 135 25 195 -12 29
-103 145 -146 186 -8 8 -40 44 -70 80 -30 35 -74 85 -97 110 -24 25 -43 48
-43 52 0 3 27 35 61 70 34 35 93 98 132 142 40 43 78 85 85 92 7 8 10 14 6 14
-4 0 1 9 12 21 26 29 27 147 2 173 -10 9 -23 25 -30 35 -19 27 -75 52 -122 56
-66 5 -124 -33 -201 -130 -22 -27 -42 -52 -45 -55 -12 -10 -101 -123 -110
-138 -8 -15 -16 -11 -52 29 -24 25 -61 68 -83 94 -90 108 -152 169 -185 183
-47 21 -95 21 -139 1z"/>
<path d="M3620 1655 c-84 -29 -133 -40 -220 -50 -14 -2 -28 -3 -31 -4 -10 -2
-2 -814 8 -846 33 -96 78 -130 173 -130 53 0 71 5 99 24 34 24 70 90 77 140 2
21 6 691 5 854 -1 26 -4 46 -8 46 -5 -1 -51 -16 -103 -34z"/>
</g>
</svg>
