<svg width="20" height="17" viewBox="0 0 20 17" fill="none" xmlns="http://www.w3.org/2000/svg">
<path d="M10.9984 12.0374C10.4434 12.1437 9.99188 12.4814 9.99012 12.7915C9.98844 13.1018 10.437 13.2669 10.9923 13.1606C11.5473 13.0543 11.9988 12.7166 12.0006 12.4064C12.0019 12.1601 11.7191 12.0052 11.3245 12.0052C11.2223 12.0052 11.1127 12.0155 10.9984 12.0374" fill="url(#paint0_linear_8_161)"/>
<path d="M7.93126 12.6594C7.7492 12.7445 7.57074 12.884 7.39604 13.0778C7.25705 12.8959 7.09188 12.7594 6.90037 12.6685C6.7087 12.5774 6.48844 12.532 6.23945 12.532C6.04305 12.532 5.8694 12.5631 5.71856 12.6253C5.56772 12.6877 5.43249 12.7846 5.31272 12.9163C5.2409 12.787 5.15883 12.6906 5.06668 12.6272C4.97445 12.5637 4.87205 12.532 4.75948 12.532C4.56564 12.532 4.42073 12.6027 4.32497 12.7439C4.22922 12.8852 4.18126 13.0994 4.18126 13.3868V15.7179C4.18126 16.0029 4.2285 16.2149 4.32313 16.3537C4.41769 16.4926 4.56316 16.562 4.75948 16.562C4.95587 16.562 5.10199 16.4926 5.19774 16.3537C5.2935 16.2149 5.34146 16.0029 5.34146 15.7179V14.3925C5.34146 14.0932 5.38813 13.8741 5.48149 13.7352C5.57492 13.5964 5.72216 13.5269 5.92328 13.5269C6.10294 13.5269 6.23456 13.597 6.31847 13.7371C6.40221 13.877 6.44417 14.1004 6.44417 14.4069V15.7179C6.44417 16.0029 6.49197 16.2149 6.5878 16.3537C6.68356 16.4926 6.82967 16.562 7.02607 16.562C7.22238 16.562 7.36842 16.4926 7.46425 16.3537C7.56001 16.2149 7.60789 16.0029 7.60789 15.7179V14.3925C7.60789 14.0932 7.65473 13.8741 7.748 13.7352C7.84143 13.5964 7.98867 13.5269 8.18987 13.5269C8.37177 13.5269 8.50524 13.5975 8.59035 13.7388C8.67529 13.8801 8.71789 14.1028 8.71789 14.4069V15.7179C8.71789 16.0053 8.76448 16.2178 8.85792 16.3555C8.95135 16.4932 9.0961 16.562 9.29258 16.562C9.4889 16.562 9.63493 16.4926 9.73069 16.3537C9.82652 16.2149 9.8744 16.0029 9.8744 15.7179V14.0549C9.8744 13.5712 9.75951 13.1965 9.52965 12.9307C9.29971 12.6649 8.97769 12.532 8.56336 12.532C8.32397 12.532 8.11309 12.5745 7.93126 12.6594" fill="url(#paint1_linear_8_161)"/>
<path d="M14.8291 12.6145C14.7417 12.6649 14.6644 12.7308 14.5975 12.8121L13.9509 13.6059L13.2469 12.7905C13.175 12.7067 13.0996 12.6451 13.0206 12.6056C12.9416 12.5661 12.8565 12.5463 12.7656 12.5463C12.6219 12.5463 12.4955 12.6051 12.3867 12.7223C12.2776 12.8396 12.2232 12.975 12.2232 13.1283C12.2232 13.2048 12.2423 13.2839 12.2807 13.3653C12.319 13.4468 12.3728 13.5246 12.4423 13.5987L13.2541 14.4213L12.2879 15.4808C12.1873 15.5934 12.122 15.6844 12.0921 15.7539C12.0622 15.8234 12.0472 15.9024 12.0472 15.9909C12.0472 16.1466 12.1022 16.2808 12.2124 16.3932C12.3226 16.5057 12.4531 16.562 12.6039 16.562C12.6949 16.562 12.7793 16.5387 12.8571 16.492C12.9349 16.4453 13.0182 16.368 13.1068 16.2603L13.9294 15.2762L14.7591 16.2603C14.8548 16.3705 14.9428 16.4483 15.0231 16.4938C15.1033 16.5393 15.1924 16.562 15.2907 16.562C15.4344 16.562 15.5582 16.5094 15.6624 16.404C15.7666 16.2987 15.8187 16.1729 15.8187 16.0269C15.8187 15.9287 15.8012 15.839 15.7666 15.7575C15.7318 15.6761 15.6594 15.5743 15.5493 15.4522L14.6441 14.4284L15.4092 13.6131C15.4931 13.5197 15.5565 13.4312 15.5996 13.3473C15.6427 13.2635 15.6642 13.1857 15.6642 13.1138C15.6642 12.9581 15.6056 12.8235 15.4882 12.7097C15.3709 12.596 15.2308 12.5392 15.0679 12.5392C14.9961 12.5392 14.9165 12.5642 14.8291 12.6145" fill="url(#paint2_linear_8_161)"/>
<path d="M11.2082 13.3724C10.9556 13.446 10.7138 13.4846 10.5084 13.4907V15.7179C10.5084 16.0029 10.5563 16.2149 10.6521 16.3537C10.7478 16.4926 10.8939 16.562 11.0903 16.562C11.2843 16.562 11.4279 16.4932 11.5213 16.3555C11.6148 16.2178 11.6614 16.0053 11.6614 15.7179V13.3868C11.6614 13.3227 11.6587 13.2628 11.6539 13.2061C11.5203 13.2684 11.3699 13.3252 11.2082 13.3724" fill="url(#paint3_linear_8_161)"/>
<path d="M13.7639 4.27728C10.2235 5.04444 6.14946 4.28368 6.10887 4.27583C5.95699 4.24701 5.81007 4.34653 5.78101 4.49849C5.75194 4.65045 5.85162 4.79729 6.00366 4.82635C6.09301 4.8434 7.24665 5.05909 8.84967 5.14732L9.54822 5.71682L8.55912 6.58182C8.44167 6.68398 8.4488 6.84395 8.57425 6.93938C8.69963 7.0345 8.89619 7.02921 9.01292 6.92689L9.96119 6.0984L10.8621 6.92249C10.9236 6.97885 11.0083 7.00727 11.094 7.00727C11.1675 7.00727 11.2409 6.98622 11.3003 6.9433C11.4283 6.85043 11.4392 6.69039 11.3255 6.58622L10.3548 5.69792L11.0041 5.16854C11.9398 5.13291 12.9247 5.03251 13.8826 4.82491C14.0339 4.79216 14.1298 4.64301 14.0971 4.49177C14.0687 4.36054 13.9525 4.27079 13.8237 4.27079C13.804 4.27071 13.784 4.27287 13.7639 4.27728" fill="url(#paint4_linear_8_161)"/>
<path d="M15.6479 7.9441C14.2064 8.55514 12.5267 9.13768 10.8838 9.58764C10.1361 9.79196 9.26754 10.0011 8.35481 10.1877C7.66131 10.3294 6.94258 10.4572 6.22833 10.5606C7.23169 10.8933 8.48379 11.0615 9.9849 11.0615C14.008 11.0615 16.2505 9.85945 16.6701 7.48742C16.3468 7.6405 16.0045 7.79278 15.6479 7.9441" fill="url(#paint5_linear_8_161)"/>
<path d="M13.4733 0.244809L12.1259 0.810777C11.4525 0.606135 10.7331 0.493805 9.9849 0.493805C9.23695 0.493805 8.5171 0.606135 7.84377 0.810777L6.49654 0.244809C3.67919 -0.85462 3.91866 2.02197 4.19544 3.46431C3.66975 4.25446 3.33652 5.16102 3.25014 6.12978C1.55576 6.95291 -0.284019 8.13497 0.0367143 9.27923C0.1954 9.84416 0.864169 10.1732 1.78306 10.3185C2.1957 10.3834 2.66519 10.4131 3.17503 10.4131C3.88175 10.4131 4.66533 10.3562 5.47902 10.2583C6.03834 10.1915 6.61207 10.1045 7.18468 10.004C8.43111 9.78587 9.67409 9.50261 10.7587 9.20549C12.3296 8.77539 14.1694 8.1545 15.793 7.44162C16.1145 7.30087 16.4277 7.15627 16.7286 7.00895C18.689 6.04699 20.1228 4.96446 19.9917 3.97328C19.9948 3.93373 19.9927 3.89313 19.9814 3.85222C19.7351 2.97201 18.2165 2.56905 15.8845 2.74887C16.0237 1.52902 15.9282 -0.000103895 14.5715 -0.000183959C14.271 -0.000183959 13.9087 0.0748351 13.4733 0.244809V0.244809ZM5.62473 6.27782C5.65091 6.12522 5.54859 5.98022 5.39615 5.95404L4.17543 5.74379C4.23475 5.35253 4.35101 5.07975 4.35101 5.07975C5.08383 2.89002 7.3316 1.29116 9.9849 1.29116C13.0392 1.29116 15.5566 3.40963 15.8435 6.11049C16.1546 5.96237 16.4277 5.8241 16.664 5.69784C16.5318 4.91234 16.2361 4.17559 15.8072 3.51715C17.9535 3.33469 19.0993 3.7218 19.1918 4.05262C19.2927 4.41354 18.4796 5.21017 16.7195 6.1285C16.457 6.26541 16.1739 6.40464 15.8693 6.54603C14.5156 7.17373 12.7455 7.83425 10.5443 8.43672C8.65801 8.95297 7.02296 9.27106 5.65756 9.44608C5.22305 9.50237 4.81609 9.54344 4.43667 9.57154C3.98776 9.60517 3.57623 9.62158 3.20826 9.62158C1.74791 9.62158 0.933823 9.37971 0.848315 9.07331C0.763528 8.77179 1.37625 8.01103 3.24341 7.04378C3.31074 7.8955 3.58792 8.61318 4.07303 9.19532C4.38631 9.17739 4.74836 9.14793 5.15724 9.10293C4.84531 8.84465 4.60785 8.5396 4.43523 8.19197C4.41978 8.1597 4.40537 8.12872 4.39168 8.09862L5.43642 7.75354C5.58334 7.70503 5.66316 7.54658 5.61464 7.39966C5.56605 7.25267 5.4076 7.17269 5.26069 7.22144L4.19945 7.57196C4.17591 7.47484 4.17527 7.43001 4.17527 7.43001C4.12499 7.17869 4.09801 6.9116 4.09801 6.62497C4.09801 6.51609 4.10265 6.40832 4.1101 6.3012L5.30096 6.50632C5.31713 6.50912 5.33306 6.51048 5.34891 6.51048C5.48278 6.51048 5.60119 6.41409 5.62473 6.27782" fill="url(#paint6_linear_8_161)"/>
<defs>
<linearGradient id="paint0_linear_8_161" x1="9.15685" y1="12.599" x2="11.1673" y2="12.599" gradientUnits="userSpaceOnUse">
<stop stop-color="#FBC634"/>
<stop offset="1" stop-color="#F08200"/>
</linearGradient>
<linearGradient id="paint1_linear_8_161" x1="6.59383" y1="13.9868" x2="9.30207" y2="19.0908" gradientUnits="userSpaceOnUse">
<stop stop-color="#FBC634"/>
<stop offset="1" stop-color="#F08200"/>
</linearGradient>
<linearGradient id="paint2_linear_8_161" x1="12.0247" y1="11.1051" x2="14.7329" y2="16.2091" gradientUnits="userSpaceOnUse">
<stop stop-color="#FBC634"/>
<stop offset="1" stop-color="#F08200"/>
</linearGradient>
<linearGradient id="paint3_linear_8_161" x1="9.82139" y1="12.2743" x2="12.5296" y2="17.3783" gradientUnits="userSpaceOnUse">
<stop stop-color="#FBC634"/>
<stop offset="1" stop-color="#F08200"/>
</linearGradient>
<linearGradient id="paint4_linear_8_161" x1="9.64681" y1="3.01609" x2="11.2852" y2="11.6022" gradientUnits="userSpaceOnUse">
<stop stop-color="#FBC634"/>
<stop offset="1" stop-color="#F08200"/>
</linearGradient>
<linearGradient id="paint5_linear_8_161" x1="10.2798" y1="2.89546" x2="11.9182" y2="11.4816" gradientUnits="userSpaceOnUse">
<stop stop-color="#FBC634"/>
<stop offset="1" stop-color="#F08200"/>
</linearGradient>
<linearGradient id="paint6_linear_8_161" x1="9.34159" y1="3.07457" x2="10.9799" y2="11.6607" gradientUnits="userSpaceOnUse">
<stop stop-color="#FBC634"/>
<stop offset="1" stop-color="#F08200"/>
</linearGradient>
</defs>
</svg>
